# xmcd
#
# Track frame offsets: 
#        150
#        28737
#        42456
#        62903
#        87042
#        117609
#        140510
#        160415
#        186709
#        209344
#
# Disc length: 2942 seconds
#
# Revision: 1
# Processed by: cddbd v1.5.2PL0 Copyright (c) Steve Scherf et al.
# Submitted via: ExactAudioCopyFreeDBPlugin 1.0
#
DISCID=9b0b7c0a
DTITLE=GORDON GOODWIN'S BIG PHAT BAND - Wrap This! - A Big Phat Christ
DTITLE=mas
DYEAR=2015
DGENRE=Jazz
TTITLE0=Carol of the Bells
TTITLE1=Do You Hear What I Hear?
TTITLE2=Let It Snow, Let It Snow, Let it Snow
TTITLE3=Hark The Herald Angels Sing
TTITLE4=The Little Drummer Boy
TTITLE5=A Christmas Carol
TTITLE6=I Heard the Bells On Christmas Day
TTITLE7=Somewhere In my Memory
TTITLE8=Santa Baby
TTITLE9=Have Yourself a Merry Little Christmas
EXTD=YEAR: 2015
EXTT0=
EXTT1=
EXTT2=
EXTT3=
EXTT4=
EXTT5=
EXTT6=
EXTT7=
EXTT8=
EXTT9=
PLAYORDER=
